<?xml version="1.0" encoding="utf-8"?>
<!-- Generator: Adobe Illustrator 15.0.0, SVG Export Plug-In . SVG Version: 6.00 Build 0)  -->
<!DOCTYPE svg PUBLIC "-//W3C//DTD SVG 1.1//EN" "http://www.w3.org/Graphics/SVG/1.1/DTD/svg11.dtd">
<svg version="1.1" id="Layer_1" xmlns="http://www.w3.org/2000/svg" xmlns:xlink="http://www.w3.org/1999/xlink" x="0px" y="0px"
    width="70px" height="60px" viewBox="0 0 4251 2834" enable-background="new 0 0 4251 2834"
    xml:space="preserve">
<g>
   <g>
      <g>
         <path fill="#FFFFFF" d="M66.369,607.562c-8.862,198.307,13.484,397.415,52.238,591.738c39.662,198.874,98.455,393.719,168.574,583.867
            c70.12,190.149,151.804,376.157,241.96,557.63c2.114,4.255,4.235,8.506,6.359,12.756c15.341,30.699,58.046,39.09,86.196,22.601
            c31.045-18.186,37.952-55.476,22.601-86.196c-55.542-111.148-107.755-223.956-156.101-338.424
            c2.117,5.017,4.234,10.033,6.351,15.05c-78.84-186.96-147.538-378.41-200.84-574.261
            c-36.518-134.177-65.535-270.527-84.109-408.376c0.75,5.583,1.5,11.166,2.25,16.748
            c-17.398-130.212-25.35-261.814-19.481-393.133c1.534-34.331-29.818-63-63-63C93.867,544.562,67.902,573.266,66.369,607.562
            L66.369,607.562z"/>
      </g>
   </g>
   <g>
      <g>
         <path fill="#FFFFFF" d="M442.602,1071.319c61.283-38.943,123.6-76.292,187.649-110.522c26.6-14.216,53.548-27.781,80.846-40.605
            c11.88-5.582,23.854-10.962,35.892-16.196c2.889-1.256,5.787-2.49,8.685-3.723c-18.841,8.019-7.782,3.295-3.646,1.587
            c6.462-2.669,12.96-5.25,19.473-7.791c39.523-15.419,80.213-28.425,121.962-36.238c4.222-0.79,8.46-1.49,12.703-2.156
            c16.946-2.66-15.874,1.913-2.427,0.302c8.369-1.002,16.776-1.651,25.195-2.026c7.223-0.321,14.457-0.317,21.681-0.078
            c7.753,0.257,35.825,3.716,6.693-0.231c12.64,1.713,25.092,4.733,37.1,9.032c5.721,2.048,18.271,7.73-5.712-2.623
            c2.588,1.117,5.128,2.341,7.649,3.601c5.352,2.673,10.498,5.743,15.479,9.051c2.269,1.507,4.472,3.109,6.651,4.742
            c-20.525-15.379-9.958-7.808-5.374-3.879c4.468,3.831,8.646,7.989,12.63,12.317c1.854,2.014,3.626,4.101,5.373,6.209
            c8.534,10.304-10.539-14.093-3.938-5.1c3.614,4.924,6.901,10.081,9.997,15.343c2.949,5.012,5.616,10.186,8.131,15.427
            c1.29,2.689,2.5,5.417,3.684,8.153c-10.529-24.33-4.035-9.615-1.822-3.735c4.717,12.534,8.391,25.446,11.462,38.473
            c1.566,6.644,2.908,13.339,4.136,20.054c0.632,3.456,1.203,6.922,1.754,10.392c0.28,1.759,0.541,3.522,0.802,5.284
            c1.843,12.454-2.246-17.195-1.025-7.812c2.029,15.594,3.306,31.282,4.164,46.981c3.988,72.957-1.774,146.353-9.382,218.888
            c-2.111,20.132-4.457,40.239-6.922,60.331c-1.207,9.831-2.455,19.656-3.723,29.479c-0.639,4.949-1.288,9.897-1.939,14.845
            c-0.327,2.482-0.657,4.964-0.986,7.446c-1.982,14.912,1.992-14.768,0.583-4.305c-5.662,42.013-11.683,83.975-17.612,125.951
            c-22.652,160.36-50.627,325.744-37.286,488.19c5.688,69.252,18.821,139.407,53.571,200.501
            c33.577,59.03,88.33,101.631,153.316,120.794c54.109,15.957,108.749,9.242,161.35-9.704
            c75.024-27.022,142.924-70.243,207.123-116.849c68.745-49.905,133.989-104.496,198.259-159.979
            c54.143-46.739,109.496-92.366,162.171-140.726c310.458-285.024,591.605-600.708,915.063-871.855
            c16.146-13.535,32.451-26.881,48.865-40.091c8.266-6.652,16.587-13.236,24.928-19.794c4.181-3.287,8.38-6.548,12.58-9.81
            c-11.521,8.947,6.39-4.834,8.38-6.347c35.301-26.821,71.426-52.553,108.367-77.064c36.326-24.104,73.648-46.704,111.914-67.59
            c17.94-9.792,36.17-19.043,54.588-27.902c9.076-4.366,18.242-8.542,27.438-12.647c4.563-2.037,9.155-4.006,13.748-5.974
            c-15.019,6.437,5.153-1.972,7.896-3.063c37.354-14.864,75.808-26.938,115.012-35.843c9.144-2.077,18.352-3.859,27.577-5.532
            c4.578-0.831,9.175-1.556,13.771-2.281c15.87-2.503-14.301,1.72,1.592-0.272c19.691-2.469,39.524-3.653,59.362-3.918
            c18.148-0.242,36.293,0.757,54.345,2.566c3.424,0.343,19.022,2.5,1.244,0.003c4.497,0.632,8.973,1.399,13.448,2.166
            c10.49,1.799,20.881,4.133,31.211,6.683c17.994,4.439,35.61,10.301,52.891,16.972c15.017,5.797-12.464-5.551,2.387,0.918
            c4.377,1.907,8.693,3.953,13.008,5.998c10.253,4.859,20.24,10.26,30.105,15.855c17.639,10.004,34.459,21.395,50.742,33.458
            c14.061,10.417-9.913-7.964,3.898,3.126c4.197,3.37,8.296,6.86,12.395,10.349c9.854,8.388,19.306,17.239,28.598,26.242
            c16.938,16.413,32.735,33.973,47.9,52.023c7.344,8.741,14.678,17.473,21.833,26.371c0.801,0.995,12.322,15.824,4.108,5.121
            c4.581,5.969,9.043,12.027,13.487,18.097c27.411,37.436,51.875,76.981,73.895,117.803c10.443,19.362,20.112,39.134,29.314,59.113
            c2.294,4.979,4.51,9.994,6.727,15.008c0.716,1.619,7.815,18.413,2.249,5.095c4.92,11.772,9.543,23.667,14.049,35.603
            c16.061,42.547,29.186,86.17,40.124,130.298c5.25,21.18,9.788,42.532,13.913,63.957c2.063,10.719,3.92,21.477,5.71,32.244
            c0.896,5.386,1.724,10.782,2.551,16.179c0.415,2.703,3.627,25.921,1.557,10.291c11.966,90.343,14.255,181.852,9.394,272.796
            c-1.94,36.284-5.28,72.486-9.592,108.563c-0.436,3.597-0.883,7.191-1.342,10.785c-2.274,18.063,1.868-13.246-0.632,4.772
            c-1.241,8.945-2.595,17.875-3.975,26.8c-2.751,17.787-5.858,35.519-9.151,53.213c-12.948,69.564-30.32,138.288-51.326,205.846
            c-10.194,32.79,11.728,68.62,44.002,77.497c33.928,9.333,67.311-11.236,77.498-44.001
            c110.045-353.93,122.121-751.845-35.253-1093.522c-40.47-87.866-94.074-168.762-156.33-242.665
            c-59.53-70.667-130.929-133.037-215.862-171.111c-158.003-70.832-331.756-51.875-488.289,13.313
            c-168.474,70.16-316.645,178.803-455.944,295.211c-149.271,124.74-290.826,259.47-429.271,395.983
            c-161.401,159.15-318.958,322.325-485.792,475.872c-52.612,48.422-108.056,93.959-162.171,140.725
            c-30.139,26.046-60.501,51.833-91.332,77.058c-15.382,12.585-30.925,24.971-46.596,37.192c12.143-9.47-1.121,0.848-3.03,2.307
            c-3.949,3.021-7.921,6.01-11.894,8.999c-9.219,6.938-18.533,13.749-27.891,20.499c-32.116,23.163-65.223,44.992-99.611,64.64
            c-15.238,8.706-30.833,16.773-46.701,24.267c-3.793,1.792-7.626,3.496-11.46,5.197c-13.386,5.943,13.328-5.423-0.066-0.017
            c-8.525,3.441-17.199,6.493-25.939,9.336c-13.928,4.531-28.197,7.941-42.649,10.29c22.248-3.615-1.285-0.195-6.874,0.063
            c-2.816,0.13-5.623,0.238-8.422-0.106c24.843,3.063,13.179,1.814,7.58,0.932c-14.3-2.254-28.382-5.828-42.022-10.669
            c-3.087-1.096-6.134-2.3-9.165-3.542c23.815,9.759,10.255,4.366,4.792,1.754c-6.128-2.931-12.06-6.26-17.833-9.835
            c-6.125-3.793-25.355-18.679-3.546-1.618c-5.186-4.057-10.095-8.456-14.814-13.044c-4.365-4.243-8.467-8.749-12.407-13.387
            c-3.854-4.537-12.336-15.979,3.159,4.364c-2.187-2.87-4.266-5.821-6.302-8.8c-7.488-10.951-13.85-22.646-19.443-34.664
            c-2.531-5.438-8.202-19.336,1.728,4.477c-1.29-3.093-2.501-6.218-3.688-9.351c-2.637-6.958-4.976-14.027-7.151-21.143
            c-4.403-14.399-7.835-29.087-10.691-43.866c-1.44-7.454-2.671-14.946-3.793-22.454c-2.433-16.281,2.094,16.544,0.415,3.257
            c-0.579-4.582-1.086-9.174-1.568-13.768c-1.788-17.049-2.872-34.167-3.547-51.294c-3.041-77.021,2.969-154.295,11.089-230.84
            c2.194-20.687,4.617-41.348,7.16-61.994c1.236-10.034,2.513-20.063,3.81-30.089c0.651-5.036,1.313-10.07,1.977-15.104
            c0.333-2.521,0.668-5.043,1.004-7.564c2-15.03-1.974,14.63-0.557,4.125c5.694-42.225,11.744-84.399,17.703-126.587
            c12.163-86.108,24.359-172.315,32.051-258.962c6.204-69.894,9.845-140.797,2.595-210.757
            c-6.397-61.729-19.075-127.896-56.633-179.068c-42.505-57.913-101.566-87.29-172.562-93.676
            c-79.65-7.165-162.673,19.146-235.629,48.334C604.604,825.886,490.01,891.983,379.007,962.522
            c-28.926,18.382-40.443,55.738-22.601,86.196C373.267,1077.503,413.591,1089.755,442.602,1071.319L442.602,1071.319z"/>
      </g>
   </g>
   <g>
      <g>
         <path fill="#FFFFFF" d="M1862.526,1189.394c88.295-88.296,176.57-176.621,263.373-266.389c89.837-92.905,178.02-187.423,263.376-284.47
            c3.518-3.999,7.027-8.003,10.535-12.011c11.291-12.9,18.452-26.979,18.452-44.548c0-16.642-6.69-32.786-18.452-44.548
            c-11.762-11.761-27.906-18.452-44.548-18.452c-15.707,0-33.935,6.327-44.548,18.452
            c-85.301,97.457-173.492,192.333-263.376,285.57c-86.729,89.964-175.019,178.403-263.373,266.765
            c-3.512,3.512-7.023,7.023-10.535,10.535c-24.271,24.272-24.272,64.824,0,89.096
            C1797.703,1213.666,1838.255,1213.666,1862.526,1189.394L1862.526,1189.394z"/>
      </g>
   </g>
   <g>
      <g>
         <path fill="#FFFFFF" d="M1987.493,1724.464c22.899,98.942,57.565,196.731,108.519,284.858c22.748,39.343,49.498,76.523,79.142,110.958
            c27.35,31.771,58.335,59.11,91.741,84.333c27.092,20.455,56.531,37.793,87.681,51.303
            c34.868,15.123,70.142,27.384,107.729,33.605c37.587,6.221,75.318,9.144,113.348,6.24c39.014-2.978,77.939-9.838,115.347-21.37
            c39.306-12.118,77.618-28.773,113.728-48.428c38.983-21.219,74.953-47.066,109.587-74.73
            c74.558-59.551,137.068-133.269,191.167-211.529c16.256-23.516,31.588-47.665,46.145-72.267
            c17.497-29.568,6.884-68.924-22.602-86.195c-29.743-17.424-68.737-6.902-86.195,22.602
            c-24.49,41.387-51.257,81.414-80.619,119.51c3.284-4.25,6.567-8.5,9.852-12.75c-45.6,58.998-97.455,113.405-156.484,159.119
            c4.25-3.283,8.5-6.567,12.75-9.852c-42.44,32.752-88.508,60.891-137.92,81.829c5.017-2.117,10.033-4.234,15.05-6.352
            c-39.278,16.551-80.489,28.427-122.76,34.145c5.583-0.75,11.165-1.5,16.748-2.25c-36.11,4.8-72.729,5.04-108.854,0.248
            c5.583,0.75,11.165,1.501,16.748,2.251c-34.581-4.675-68.396-13.93-100.574-27.42c5.017,2.117,10.032,4.234,15.05,6.351
            c-34.152-14.415-66.152-33.459-95.518-56.052c4.25,3.283,8.5,6.566,12.751,9.851c-35.658-27.564-67.163-60.114-94.739-95.711
            c3.283,4.25,6.567,8.5,9.851,12.75c-38.961-50.495-69.917-106.725-94.759-165.37c2.117,5.017,4.234,10.033,6.351,15.05
            c-24.271-57.548-42.684-117.407-56.759-178.223c-7.743-33.455-45.44-52.819-77.498-44.002
            c-15.747,4.332-29.401,14.87-37.65,28.952C1985.037,1690.952,1983.62,1707.73,1987.493,1724.464L1987.493,1724.464z"/>
      </g>
   </g>
</g>
</svg>
