<?xml version="1.0" encoding="utf-8"?>
<!-- Generator: Adobe Illustrator 15.0.0, SVG Export Plug-In . SVG Version: 6.00 Build 0)  -->
<!DOCTYPE svg PUBLIC "-//W3C//DTD SVG 1.1//EN" "http://www.w3.org/Graphics/SVG/1.1/DTD/svg11.dtd">
<svg version="1.1" id="Layer_1" xmlns="http://www.w3.org/2000/svg" xmlns:xlink="http://www.w3.org/1999/xlink" x="0px" y="0px"
    width="42px" height="42px" viewBox="0 0 4251.971 4251.971" enable-background="new 0 0 4251.971 4251.971"
    xml:space="preserve">
<g>
   <circle cx="2125.985" cy="2074.539" r="737.976"/>
   <rect x="2046.459" y="336.196" width="159.054" height="819.973"/>
   <rect x="2046.459" y="2951.908" width="159.054" height="819.973"/>
   <rect x="408.143" y="1954.012" width="819.972" height="159.055"/>
   <rect x="3023.855" y="1954.012" width="819.974" height="159.055"/>
   
      <rect x="1121.665" y="2548.349" transform="matrix(-0.7071 -0.7071 0.7071 -0.7071 -41.277 5899.5728)" width="159.053" height="819.973"/>
   
      <rect x="2971.254" y="698.76" transform="matrix(-0.7071 -0.7071 0.7071 -0.7071 4424.0063 4049.9761)" width="159.053" height="819.974"/>
   
      <rect x="1121.665" y="698.759" transform="matrix(0.7071 -0.7071 0.7071 0.7071 -432.1803 1174.104)" width="159.054" height="819.972"/>
   
      <rect x="2971.252" y="2548.346" transform="matrix(0.7071 -0.7071 0.7071 0.7071 -1198.3037 3023.7585)" width="159.056" height="819.974"/>
</g>
</svg>
